<?xml version="1.0" standalone="no"?>
<!DOCTYPE svg PUBLIC "-//W3C//DTD SVG 20010904//EN"
 "http://www.w3.org/TR/2001/REC-SVG-20010904/DTD/svg10.dtd">
<svg version="1.0" xmlns="http://www.w3.org/2000/svg"
 width="88.000000pt" height="88.000000pt" viewBox="0 0 88.000000 88.000000"
 preserveAspectRatio="xMidYMid meet">
<metadata>
Created by potrace 1.11, written by Peter Selinger 2001-2013
</metadata>
<g transform="translate(0.000000,88.000000) scale(0.100000,-0.100000)"
fill="#000000" stroke="none">
<path d="M70 780 l0 -100 -25 0 -25 0 0 -340 0 -340 325 0 325 0 0 25 0 25
100 0 100 0 0 415 0 415 -400 0 -400 0 0 -100z m770 -315 l0 -385 -370 0 -370
0 0 385 0 385 370 0 370 0 0 -385z"/>
<path d="M307 514 c-4 -4 -7 -36 -7 -71 0 -61 1 -63 25 -63 26 0 26 1 23 67
-2 52 -7 68 -18 71 -9 1 -19 0 -23 -4z"/>
<path d="M380 450 c0 -63 2 -70 20 -70 16 0 20 7 20 33 l0 32 20 -32 c12 -20
28 -33 40 -33 18 0 20 6 20 70 0 56 -3 70 -15 70 -11 0 -15 -11 -15 -42 l0
-43 -26 43 c-16 26 -32 42 -45 42 -17 0 -19 -7 -19 -70z"/>
<path d="M534 505 c-9 -22 1 -104 15 -118 6 -6 27 -11 47 -11 48 0 64 23 64
91 0 46 -3 53 -19 53 -17 0 -20 -8 -23 -52 -2 -40 -7 -54 -20 -56 -14 -3 -17
6 -20 50 -2 41 -7 54 -21 56 -9 2 -20 -4 -23 -13z"/>
</g>
</svg>
